ply
format ascii 1.0
element vertex 27
property float x
property float y
property float z
end_header
1.03923 0.703 -2.08072
0.914445 0.158986 -1.93481
0.763912 -0.380431 -1.87613
0.513711 -0.40083 -1.8254
0.561262 -0.17732 -1.83984
0.595947 0.0191227 -1.86402
0.632239 0.175409 -1.89901
0.667219 0.360325 -1.94602
0.699896 0.540333 -2.00389
0.744722 0.708322 -2.05917
0.783552 0.875595 -2.11279
0.829148 1.044 -2.16715
0.873438 1.19653 -2.2361
0.561811 1.13431 -2.16916
0.578542 0.953421 -2.10305
0.545241 0.773844 -2.05913
0.493307 0.599076 -1.99737
0.434456 0.431634 -1.93945
0.384263 0.256089 -1.89504
0.296563 -0.0931295 -1.81311
-0.0296137 -0.27988 -1.80075
0.0615265 0.118627 -1.8639
0.0972884 0.280264 -1.88839
0.215167 0.787819 -2.00763
0.258656 0.957392 -2.05709
0.299351 1.14607 -2.11354
0.343512 1.33418 -2.18276
