ply
format ascii 1.0
element vertex 40
property float x
property float y
property float z
property uchar diffuse_red
property uchar diffuse_green
property uchar diffuse_blue
end_header
1.17738 1.2481 -2.28709 0 255 0
-0.181726 0.668411 -4.41171 0 255 0
1.08154 0.878533 -2.1373 0 255 0
1.03923 0.703 -2.08072 255 0 255
1.00185 0.525525 -2.02354 0 255 0
0.958878 0.332731 -1.97462 0 255 0
0.914445 0.158986 -1.93481 255 0 255
0.864744 -0.0208592 -1.89375 0 255 0
0.143156 -0.803369 -5.50162 0 255 0
0.763912 -0.380431 -1.87613 255 0 255
0.513711 -0.40083 -1.8254 255 0 255
0.561262 -0.17732 -1.83984 255 0 255
0.595947 0.0191227 -1.86402 255 0 255
0.632239 0.175409 -1.89901 255 0 255
0.667219 0.360325 -1.94602 255 0 255
0.699896 0.540333 -2.00389 255 0 255
0.744722 0.708322 -2.05917 255 0 255
0.783552 0.875595 -2.11279 255 0 255
0.829148 1.044 -2.16715 255 0 255
0.873438 1.19653 -2.2361 255 0 255
0.58631 1.32369 -2.2352 0 255 0
0.561811 1.13431 -2.16916 255 0 255
0.578542 0.953421 -2.10305 255 0 255
0.545241 0.773844 -2.05913 255 0 255
0.493307 0.599076 -1.99737 255 0 255
0.434456 0.431634 -1.93945 255 0 255
0.384263 0.256089 -1.89504 255 0 255
0.338689 0.0765845 -1.84312 0 255 0
0.296563 -0.0931295 -1.81311 255 0 255
0.253514 -0.269902 -1.80283 0 255 0
-0.0296137 -0.27988 -1.80075 255 0 255
0.0203861 -0.0620982 -1.84132 0 255 0
0.0615265 0.118627 -1.8639 255 0 255
0.0972884 0.280264 -1.88839 255 0 255
0.133969 0.463903 -1.93138 0 255 0
0.170644 0.627604 -1.9677 0 255 0
0.215167 0.787819 -2.00763 255 0 255
0.258656 0.957392 -2.05709 255 0 255
0.299351 1.14607 -2.11354 255 0 255
0.343512 1.33418 -2.18276 255 0 255
